<?xml version="1.0" encoding="UTF-8" standalone="no"?>
<!DOCTYPE svg PUBLIC "-//W3C//DTD SVG 1.1//EN" "http://www.w3.org/Graphics/SVG/1.1/DTD/svg11.dtd">
<svg width="100%" height="100%" viewBox="0 0 470 411" version="1.1" xmlns="http://www.w3.org/2000/svg" xmlns:xlink="http://www.w3.org/1999/xlink" xml:space="preserve" xmlns:serif="http://www.serif.com/" style="fill-rule:evenodd;clip-rule:evenodd;stroke-linejoin:round;stroke-miterlimit:2;">
    <g transform="matrix(1,0,0,1,-683,-2238)">
        <g id="ost_logotext_tight" transform="matrix(1.06576,0,0,1.12637,604.134,2127.23)">
            <rect x="74" y="99" width="441" height="364" style="fill:none;"/>
            <g id="OST-Logo" serif:id="OST Logo" transform="matrix(0.247755,0,0,0.234438,86.3096,66.654)">
                <g id="OST-Logotext" serif:id="OST Logotext" transform="matrix(1,0,0,1,920.455,374.745)">
                    <path d="M83.774,1.943C69.38,1.943 56.821,-1.259 46.097,-7.665C35.374,-14.07 27.097,-23.139 21.267,-34.87C15.438,-46.601 12.523,-60.383 12.523,-76.217C12.523,-88.164 14.178,-98.924 17.489,-108.496C20.8,-118.068 25.55,-126.273 31.739,-133.11C37.929,-139.947 45.414,-145.165 54.194,-148.764C62.974,-152.362 72.834,-154.161 83.774,-154.161C98.312,-154.161 110.907,-150.995 121.559,-144.661C132.21,-138.328 140.451,-129.331 146.281,-117.672C152.11,-106.013 155.025,-92.266 155.025,-76.433C155.025,-64.486 153.37,-53.69 150.059,-44.046C146.748,-34.402 141.962,-26.125 135.701,-19.216C129.439,-12.307 121.918,-7.053 113.138,-3.455C104.358,0.144 94.57,1.943 83.774,1.943ZM83.774,-17.489C93.85,-17.489 102.45,-19.792 109.575,-24.398C116.701,-29.004 122.17,-35.697 125.985,-44.478C129.799,-53.258 131.706,-63.838 131.706,-76.217C131.706,-94.785 127.532,-109.18 119.184,-119.399C110.835,-129.619 99.032,-134.729 83.774,-134.729C73.698,-134.729 65.098,-132.462 57.972,-127.928C50.847,-123.394 45.378,-116.737 41.563,-107.956C37.749,-99.176 35.841,-88.596 35.841,-76.217C35.841,-57.792 40.052,-43.398 48.472,-33.035C56.893,-22.671 68.66,-17.489 83.774,-17.489ZM204.469,-17.017L204.469,29.364C204.469,32.963 203.497,35.697 201.554,37.569C199.611,39.44 196.912,40.376 193.457,40.376C190.003,40.376 187.34,39.44 185.469,37.569C183.597,35.697 182.662,32.963 182.662,29.364L182.662,-95.865C182.662,-99.464 183.597,-102.198 185.469,-104.07C187.34,-105.941 189.931,-106.877 193.241,-106.877C196.696,-106.877 199.359,-105.941 201.23,-104.07C203.101,-102.198 204.037,-99.464 204.037,-95.865L204.037,-87.615C206.597,-92.66 210.34,-96.886 215.264,-100.291C222.03,-104.969 230.018,-107.308 239.231,-107.308C248.587,-107.308 256.756,-105.077 263.737,-100.615C270.718,-96.153 276.116,-89.891 279.93,-81.831C283.745,-73.77 285.652,-64.054 285.652,-52.683C285.652,-41.599 283.745,-31.919 279.93,-23.642C276.116,-15.366 270.754,-9.032 263.845,-4.642C256.936,-0.252 248.731,1.943 239.231,1.943C230.162,1.943 222.246,-0.36 215.48,-4.966C210.692,-8.226 207.022,-12.243 204.469,-17.017ZM233.833,-14.898C239.878,-14.898 245.132,-16.337 249.595,-19.216C254.057,-22.095 257.511,-26.341 259.958,-31.955C262.405,-37.569 263.629,-44.478 263.629,-52.683C263.629,-65.062 260.93,-74.418 255.532,-80.751C250.134,-87.085 242.901,-90.251 233.833,-90.251C227.931,-90.251 222.713,-88.848 218.179,-86.041C213.645,-83.234 210.155,-79.024 207.708,-73.41C205.261,-67.796 204.037,-60.887 204.037,-52.683C204.037,-40.448 206.772,-31.091 212.242,-24.614C217.711,-18.137 224.909,-14.898 233.833,-14.898ZM325.143,-47.717C325.893,-37.704 328.815,-29.967 333.908,-24.506C339.882,-18.101 348.554,-14.898 359.926,-14.898C364.244,-14.898 368.814,-15.474 373.636,-16.625C378.458,-17.777 383.028,-19.72 387.346,-22.455C389.793,-23.894 391.989,-24.542 393.932,-24.398C395.875,-24.254 397.458,-23.606 398.682,-22.455C399.905,-21.303 400.661,-19.864 400.949,-18.137C401.237,-16.409 400.949,-14.646 400.085,-12.847C399.222,-11.048 397.71,-9.428 395.551,-7.989C390.657,-4.678 384.971,-2.195 378.494,-0.54C372.017,1.116 365.755,1.943 359.71,1.943C348.194,1.943 338.298,-0.252 330.022,-4.642C321.745,-9.032 315.34,-15.294 310.806,-23.426C306.271,-31.559 304.004,-41.239 304.004,-52.467C304.004,-63.406 306.235,-72.978 310.698,-81.183C315.16,-89.388 321.277,-95.793 329.05,-100.399C336.823,-105.005 345.675,-107.308 355.607,-107.308C362.948,-107.308 369.498,-106.121 375.255,-103.746C381.013,-101.371 385.943,-97.916 390.045,-93.382C394.148,-88.848 397.242,-83.342 399.33,-76.865C401.417,-70.387 402.46,-63.118 402.46,-55.058C402.46,-52.611 401.741,-50.775 400.301,-49.552C398.862,-48.328 396.703,-47.717 393.824,-47.717L325.143,-47.717ZM325.301,-61.103L384.044,-61.103C383.788,-67.006 382.766,-72.116 380.977,-76.433C378.89,-81.471 375.795,-85.321 371.693,-87.984C367.591,-90.647 362.517,-91.979 356.471,-91.979C349.706,-91.979 343.984,-90.395 339.306,-87.229C334.628,-84.062 331.065,-79.672 328.618,-74.058C326.93,-70.185 325.824,-65.867 325.301,-61.103ZM447.37,-87.986C450.455,-93.574 454.63,-97.963 459.893,-101.155C466.658,-105.257 474.431,-107.308 483.212,-107.308C491.56,-107.308 498.505,-105.761 504.047,-102.666C509.589,-99.572 513.727,-94.893 516.462,-88.632C519.197,-82.371 520.564,-74.49 520.564,-64.99L520.564,-9.5C520.564,-6.046 519.629,-3.347 517.757,-1.403C515.886,0.54 513.223,1.511 509.769,1.511C506.17,1.511 503.435,0.54 501.564,-1.403C499.693,-3.347 498.757,-6.046 498.757,-9.5L498.757,-63.694C498.757,-72.762 496.994,-79.384 493.467,-83.558C489.941,-87.732 484.435,-89.819 476.95,-89.819C468.17,-89.819 461.152,-87.085 455.899,-81.615C450.645,-76.145 448.018,-68.804 448.018,-59.592L448.018,-9.5C448.018,-2.159 444.347,1.511 437.006,1.511C433.552,1.511 430.889,0.54 429.018,-1.403C427.146,-3.347 426.211,-6.046 426.211,-9.5L426.211,-95.865C426.211,-99.464 427.146,-102.198 429.018,-104.07C430.889,-105.941 433.48,-106.877 436.79,-106.877C440.245,-106.877 442.872,-105.941 444.671,-104.07C446.47,-102.198 447.37,-99.464 447.37,-95.865L447.37,-87.986ZM68.444,217.855C61.823,217.855 55.345,217.352 49.012,216.344C42.679,215.336 36.705,213.789 31.091,211.702C25.478,209.615 20.44,207.06 15.978,204.037C13.818,202.454 12.343,200.654 11.551,198.639C10.76,196.624 10.544,194.645 10.904,192.702C11.263,190.758 12.091,189.067 13.387,187.628C14.682,186.188 16.265,185.289 18.137,184.929C20.008,184.569 22.095,185.181 24.398,186.764C30.875,190.938 37.713,193.997 44.91,195.94C52.107,197.884 59.952,198.855 68.444,198.855C80.679,198.855 89.712,196.66 95.541,192.27C101.371,187.88 104.286,182.158 104.286,175.105C104.286,169.347 102.198,164.777 98.024,161.394C93.85,158.012 86.869,155.313 77.081,153.298L53.978,148.548C40.304,145.669 30.12,140.919 23.426,134.297C16.733,127.676 13.387,118.752 13.387,107.524C13.387,100.759 14.79,94.57 17.597,88.956C20.404,83.342 24.326,78.484 29.364,74.382C34.402,70.279 40.448,67.149 47.501,64.99C54.554,62.83 62.255,61.751 70.603,61.751C79.528,61.751 87.912,62.902 95.757,65.205C103.602,67.509 110.619,71.035 116.809,75.785C118.68,77.081 119.939,78.7 120.587,80.643C121.235,82.586 121.379,84.494 121.019,86.365C120.659,88.236 119.831,89.819 118.536,91.115C117.24,92.41 115.585,93.166 113.57,93.382C111.555,93.598 109.324,92.914 106.877,91.331C101.263,87.588 95.541,84.889 89.712,83.234C83.882,81.579 77.441,80.751 70.387,80.751C63.334,80.751 57.181,81.831 51.927,83.99C46.673,86.149 42.643,89.172 39.836,93.058C37.029,96.945 35.626,101.551 35.626,106.877C35.626,112.922 37.569,117.744 41.455,121.343C45.342,124.941 51.819,127.676 60.887,129.547L83.774,134.297C98.168,137.32 108.892,141.998 115.945,148.332C122.998,154.665 126.525,163.086 126.525,173.593C126.525,180.359 125.157,186.44 122.422,191.838C119.687,197.236 115.801,201.878 110.763,205.764C105.725,209.651 99.643,212.638 92.518,214.725C85.393,216.812 77.369,217.855 68.444,217.855ZM196.048,217.855C185.253,217.855 175.932,215.588 168.088,211.054C160.243,206.52 154.161,200.115 149.843,191.838C145.525,183.561 143.366,173.809 143.366,162.582C143.366,154.233 144.589,146.712 147.036,140.019C149.483,133.326 152.974,127.676 157.508,123.07C162.042,118.464 167.584,114.901 174.133,112.382C180.683,109.863 187.988,108.604 196.048,108.604C201.086,108.604 206.376,109.36 211.918,110.871C217.46,112.382 222.605,114.865 227.356,118.32C229.227,119.471 230.414,120.875 230.918,122.53C231.422,124.186 231.494,125.877 231.134,127.604C230.774,129.331 229.982,130.807 228.759,132.03C227.535,133.254 226.06,133.974 224.333,134.189C222.605,134.405 220.734,133.938 218.719,132.786C215.264,130.339 211.738,128.576 208.139,127.496C204.541,126.417 201.086,125.877 197.776,125.877C192.594,125.877 188.024,126.704 184.065,128.36C180.107,130.015 176.76,132.39 174.025,135.485C171.29,138.58 169.239,142.43 167.872,147.036C166.504,151.642 165.821,156.896 165.821,162.798C165.821,174.601 168.591,183.849 174.133,190.543C179.675,197.236 187.556,200.582 197.776,200.582C201.086,200.582 204.541,200.079 208.139,199.071C211.738,198.063 215.264,196.336 218.719,193.889C220.734,192.738 222.605,192.306 224.333,192.594C226.06,192.882 227.464,193.637 228.543,194.861C229.623,196.084 230.342,197.524 230.702,199.179C231.062,200.834 230.954,202.526 230.378,204.253C229.803,205.98 228.579,207.42 226.708,208.571C222.102,211.882 217.1,214.257 211.702,215.696C206.304,217.136 201.086,217.855 196.048,217.855ZM261.254,217.208C257.799,217.208 255.136,216.164 253.265,214.077C251.394,211.99 250.458,209.075 250.458,205.333L250.458,121.127C250.458,117.384 251.394,114.505 253.265,112.49C255.136,110.475 257.799,109.467 261.254,109.467C264.708,109.467 267.407,110.475 269.35,112.49C271.294,114.505 272.265,117.384 272.265,121.127L272.265,205.333C272.265,209.075 271.33,211.99 269.458,214.077C267.587,216.164 264.852,217.208 261.254,217.208ZM261.254,87.013C256.936,87.013 253.589,85.933 251.214,83.774C248.839,81.615 247.651,78.592 247.651,74.706C247.651,70.675 248.839,67.617 251.214,65.529C253.589,63.442 256.936,62.399 261.254,62.399C265.572,62.399 268.919,63.442 271.294,65.529C273.669,67.617 274.856,70.675 274.856,74.706C274.856,78.592 273.669,81.615 271.294,83.774C268.919,85.933 265.572,87.013 261.254,87.013ZM317.802,168.196C318.552,178.208 321.474,185.945 326.567,191.406C332.541,197.812 341.213,201.014 352.585,201.014C356.903,201.014 361.473,200.438 366.295,199.287C371.117,198.135 375.687,196.192 380.005,193.457C382.452,192.018 384.648,191.37 386.591,191.514C388.534,191.658 390.117,192.306 391.341,193.457C392.564,194.609 393.32,196.048 393.608,197.776C393.896,199.503 393.608,201.266 392.744,203.065C391.881,204.865 390.369,206.484 388.21,207.923C383.316,211.234 377.63,213.717 371.153,215.372C364.676,217.028 358.414,217.855 352.369,217.855C340.853,217.855 330.957,215.66 322.681,211.27C314.404,206.88 307.999,200.618 303.465,192.486C298.93,184.353 296.663,174.673 296.663,163.446C296.663,152.506 298.894,142.934 303.357,134.729C307.819,126.525 313.936,120.119 321.709,115.513C329.482,110.907 338.334,108.604 348.266,108.604C355.607,108.604 362.157,109.791 367.914,112.166C373.672,114.541 378.602,117.996 382.704,122.53C386.807,127.064 389.901,132.57 391.989,139.047C394.076,145.525 395.119,152.794 395.119,160.855C395.119,163.302 394.4,165.137 392.96,166.36C391.521,167.584 389.362,168.196 386.483,168.196L317.802,168.196ZM317.96,154.809L376.703,154.809C376.447,148.906 375.425,143.796 373.636,139.479C371.549,134.441 368.454,130.591 364.352,127.928C360.25,125.265 355.176,123.934 349.13,123.934C342.365,123.934 336.643,125.517 331.965,128.684C327.287,131.85 323.724,136.241 321.277,141.854C319.589,145.727 318.483,150.045 317.96,154.809ZM440.029,127.926C443.114,122.339 447.289,117.949 452.552,114.757C459.317,110.655 467.09,108.604 475.87,108.604C484.219,108.604 491.164,110.151 496.706,113.246C502.248,116.341 506.386,121.019 509.121,127.28C511.856,133.542 513.223,141.422 513.223,150.923L513.223,206.412C513.223,209.867 512.288,212.566 510.416,214.509C508.545,216.452 505.882,217.424 502.428,217.424C498.829,217.424 496.094,216.452 494.223,214.509C492.352,212.566 491.416,209.867 491.416,206.412L491.416,152.218C491.416,143.15 489.653,136.528 486.126,132.354C482.6,128.18 477.094,126.093 469.609,126.093C460.829,126.093 453.811,128.828 448.558,134.297C443.304,139.767 440.677,147.108 440.677,156.32L440.677,206.412C440.677,213.753 437.006,217.424 429.665,217.424C426.211,217.424 423.548,216.452 421.677,214.509C419.805,212.566 418.87,209.867 418.87,206.412L418.87,120.047C418.87,116.449 419.805,113.714 421.677,111.843C423.548,109.971 426.139,109.036 429.449,109.036C432.904,109.036 435.531,109.971 437.33,111.843C439.129,113.714 440.029,116.449 440.029,120.047L440.029,127.926ZM589.656,217.855C578.861,217.855 569.54,215.588 561.696,211.054C553.851,206.52 547.769,200.115 543.451,191.838C539.133,183.561 536.974,173.809 536.974,162.582C536.974,154.233 538.197,146.712 540.644,140.019C543.091,133.326 546.582,127.676 551.116,123.07C555.65,118.464 561.192,114.901 567.741,112.382C574.29,109.863 581.595,108.604 589.656,108.604C594.694,108.604 599.984,109.36 605.526,110.871C611.068,112.382 616.213,114.865 620.963,118.32C622.835,119.471 624.022,120.875 624.526,122.53C625.03,124.186 625.102,125.877 624.742,127.604C624.382,129.331 623.59,130.807 622.367,132.03C621.143,133.254 619.668,133.974 617.941,134.189C616.213,134.405 614.342,133.938 612.327,132.786C608.872,130.339 605.346,128.576 601.747,127.496C598.149,126.417 594.694,125.877 591.384,125.877C586.202,125.877 581.631,126.704 577.673,128.36C573.715,130.015 570.368,132.39 567.633,135.485C564.898,138.58 562.847,142.43 561.48,147.036C560.112,151.642 559.429,156.896 559.429,162.798C559.429,174.601 562.199,183.849 567.741,190.543C573.283,197.236 581.164,200.582 591.384,200.582C594.694,200.582 598.149,200.079 601.747,199.071C605.346,198.063 608.872,196.336 612.327,193.889C614.342,192.738 616.213,192.306 617.941,192.594C619.668,192.882 621.071,193.637 622.151,194.861C623.231,196.084 623.95,197.524 624.31,199.179C624.67,200.834 624.562,202.526 623.986,204.253C623.41,205.98 622.187,207.42 620.316,208.571C615.71,211.882 610.708,214.257 605.31,215.696C599.912,217.136 594.694,217.855 589.656,217.855ZM656.784,168.196C657.535,178.208 660.456,185.945 665.549,191.406C671.523,197.812 680.195,201.014 691.567,201.014C695.885,201.014 700.455,200.438 705.277,199.287C710.099,198.135 714.669,196.192 718.988,193.457C721.435,192.018 723.63,191.37 725.573,191.514C727.516,191.658 729.1,192.306 730.323,193.457C731.547,194.609 732.302,196.048 732.59,197.776C732.878,199.503 732.59,201.266 731.726,203.065C730.863,204.865 729.351,206.484 727.192,207.923C722.298,211.234 716.613,213.717 710.135,215.372C703.658,217.028 697.396,217.855 691.351,217.855C679.836,217.855 669.94,215.66 661.663,211.27C653.386,206.88 646.981,200.618 642.447,192.486C637.913,184.353 635.646,174.673 635.646,163.446C635.646,152.506 637.877,142.934 642.339,134.729C646.801,126.525 652.918,120.119 660.691,115.513C668.464,110.907 677.317,108.604 687.249,108.604C694.59,108.604 701.139,109.791 706.897,112.166C712.654,114.541 717.584,117.996 721.687,122.53C725.789,127.064 728.884,132.57 730.971,139.047C733.058,145.525 734.101,152.794 734.101,160.855C734.101,163.302 733.382,165.137 731.942,166.36C730.503,167.584 728.344,168.196 725.465,168.196L656.784,168.196ZM656.942,154.809L715.685,154.809C715.429,148.906 714.407,143.796 712.618,139.479C710.531,134.441 707.436,130.591 703.334,127.928C699.232,125.265 694.158,123.934 688.112,123.934C681.347,123.934 675.625,125.517 670.947,128.684C666.269,131.85 662.707,136.241 660.26,141.854C658.571,145.727 657.465,150.045 656.942,154.809ZM66.069,433.336C62.471,433.336 59.7,432.328 57.757,430.313C55.813,428.298 54.842,425.491 54.842,421.892L54.842,298.391L9.068,298.391C6.046,298.391 3.671,297.563 1.943,295.908C0.216,294.252 -0.648,291.913 -0.648,288.891C-0.648,285.868 0.216,283.565 1.943,281.981C3.671,280.398 6.046,279.606 9.068,279.606L122.854,279.606C126.021,279.606 128.468,280.398 130.195,281.981C131.922,283.565 132.786,285.868 132.786,288.891C132.786,291.913 131.922,294.252 130.195,295.908C128.468,297.563 126.021,298.391 122.854,298.391L77.081,298.391L77.081,421.892C77.081,425.491 76.181,428.298 74.382,430.313C72.582,432.328 69.812,433.336 66.069,433.336ZM176.4,433.768C165.749,433.768 156.572,431.537 148.871,427.074C141.171,422.612 135.161,416.279 130.843,408.074C126.525,399.869 124.365,390.225 124.365,379.142C124.365,370.649 125.589,363.092 128.036,356.471C130.483,349.85 133.974,344.128 138.508,339.306C143.042,334.484 148.512,330.813 154.917,328.295C161.322,325.776 168.483,324.516 176.4,324.516C186.908,324.516 196.012,326.747 203.713,331.209C211.414,335.672 217.424,341.969 221.742,350.102C226.06,358.234 228.219,367.914 228.219,379.142C228.219,387.49 226.996,395.047 224.549,401.813C222.102,408.578 218.611,414.336 214.077,419.086C209.543,423.836 204.073,427.47 197.668,429.989C191.262,432.508 184.173,433.768 176.4,433.768ZM176.4,416.926C182.302,416.926 187.484,415.487 191.946,412.608C196.408,409.729 199.899,405.483 202.418,399.869C204.937,394.256 206.196,387.346 206.196,379.142C206.196,366.763 203.461,357.407 197.991,351.073C192.522,344.74 185.325,341.573 176.4,341.573C170.355,341.573 165.101,342.977 160.639,345.783C156.176,348.59 152.686,352.801 150.167,358.414C147.648,364.028 146.388,370.937 146.388,379.142C146.388,391.377 149.123,400.733 154.593,407.21C160.063,413.688 167.332,416.926 176.4,416.926ZM298.391,433.768C287.739,433.768 278.563,431.537 270.862,427.074C263.161,422.612 257.151,416.279 252.833,408.074C248.515,399.869 246.356,390.225 246.356,379.142C246.356,370.649 247.579,363.092 250.026,356.471C252.473,349.85 255.964,344.128 260.498,339.306C265.032,334.484 270.502,330.813 276.907,328.295C283.313,325.776 290.474,324.516 298.391,324.516C308.898,324.516 318.003,326.747 325.704,331.209C333.404,335.672 339.414,341.969 343.732,350.102C348.05,358.234 350.21,367.914 350.21,379.142C350.21,387.49 348.986,395.047 346.539,401.813C344.092,408.578 340.601,414.336 336.067,419.086C331.533,423.836 326.063,427.47 319.658,429.989C313.253,432.508 306.163,433.768 298.391,433.768ZM298.391,416.926C304.292,416.926 309.474,415.487 313.936,412.608C318.399,409.729 321.889,405.483 324.408,399.869C326.927,394.256 328.187,387.346 328.187,379.142C328.187,366.763 325.452,357.407 319.982,351.073C314.512,344.74 307.315,341.573 298.391,341.573C292.345,341.573 287.091,342.977 282.629,345.783C278.167,348.59 274.676,352.801 272.157,358.414C269.638,364.028 268.379,370.937 268.379,379.142C268.379,391.377 271.114,400.733 276.584,407.21C282.053,413.688 289.322,416.926 298.391,416.926ZM408.506,433.768C397.278,433.768 388.822,430.493 383.136,423.944C377.451,417.394 374.608,407.93 374.608,395.551L374.608,289.106C374.608,285.508 375.543,282.773 377.415,280.902C379.286,279.031 381.949,278.095 385.403,278.095C388.858,278.095 391.557,279.031 393.5,280.902C395.443,282.773 396.415,285.508 396.415,289.106L396.415,394.256C396.415,401.453 397.89,406.815 400.841,410.341C403.792,413.868 408.074,415.631 413.688,415.631C414.983,415.631 416.135,415.595 417.142,415.523C418.15,415.451 419.158,415.343 420.165,415.199C421.892,415.055 423.116,415.523 423.836,416.603C424.555,417.682 424.915,419.877 424.915,423.188C424.915,426.211 424.267,428.55 422.972,430.205C421.677,431.86 419.589,432.904 416.711,433.336C415.415,433.48 414.048,433.588 412.608,433.66C411.169,433.732 409.801,433.768 408.506,433.768ZM476.518,433.768C470.185,433.768 463.671,433.048 456.978,431.608C450.285,430.169 444.131,427.722 438.518,424.267C436.646,422.972 435.351,421.533 434.631,419.949C433.912,418.366 433.66,416.747 433.876,415.091C434.091,413.436 434.739,411.996 435.819,410.773C436.898,409.549 438.266,408.794 439.921,408.506C441.576,408.218 443.34,408.578 445.211,409.585C450.825,412.752 456.222,414.947 461.404,416.171C466.586,417.394 471.696,418.006 476.734,418.006C484.363,418.006 490.121,416.639 494.007,413.904C497.894,411.169 499.837,407.498 499.837,402.892C499.837,399.15 498.541,396.235 495.95,394.148C493.359,392.061 489.473,390.441 484.291,389.29L463.779,385.187C454.855,383.316 448.09,380.005 443.484,375.255C438.878,370.505 436.574,364.46 436.574,357.119C436.574,350.497 438.374,344.74 441.972,339.846C445.571,334.952 450.609,331.173 457.086,328.51C463.563,325.847 471.048,324.516 479.541,324.516C485.874,324.516 491.848,325.308 497.462,326.891C503.075,328.474 508.257,330.849 513.007,334.016C514.879,335.024 516.102,336.355 516.678,338.011C517.254,339.666 517.362,341.285 517.002,342.869C516.642,344.452 515.886,345.855 514.735,347.079C513.583,348.302 512.18,349.022 510.524,349.238C508.869,349.454 507.034,349.058 505.019,348.05C500.7,345.316 496.418,343.372 492.172,342.221C487.926,341.069 483.715,340.494 479.541,340.494C471.912,340.494 466.19,341.897 462.376,344.704C458.562,347.511 456.654,351.289 456.654,356.039C456.654,359.638 457.806,362.589 460.109,364.892C462.412,367.195 466.01,368.85 470.905,369.858L491.416,373.96C500.772,375.831 507.861,378.998 512.684,383.46C517.506,387.922 519.917,393.968 519.917,401.597C519.917,411.529 515.958,419.373 508.041,425.131C500.125,430.889 489.617,433.768 476.518,433.768Z"/>
                </g>
                <g id="OST-Emblem" serif:id="OST Emblem">
                    <g id="tabs">
                        <g id="path3823" transform="matrix(1,0,0,1,0,197)">
                            <path d="M611,1316.9C601.5,1323.5 609.6,1336.2 609.8,1345.5C611.3,1356.2 612.6,1368.3 624.4,1372.4C646.1,1386.3 666.6,1402.5 689.6,1414.3C702,1413 715.1,1410.7 726.5,1405.6C734.7,1398.6 724.6,1390.2 718.2,1387C684.3,1363.8 650.9,1339.4 616.6,1317.1C614.8,1316 612.9,1316.7 611,1316.9Z" style="fill:white;fill-rule:nonzero;"/>
                        </g>
                        <g id="path3825" transform="matrix(1,0,0,1,0,197)">
                            <path d="M872.8,1311.6C857.8,1318.1 845.9,1330.7 832.3,1339.7C807.4,1359 781.5,1377.2 757.9,1397.9C752.6,1406.9 763,1411.6 770.1,1413.2C780.8,1416.4 793.7,1428.1 804.8,1419C828.2,1403.1 851.4,1386.7 872.9,1368.4C883.2,1355.3 879.9,1337 881.6,1321.5C881.8,1316.3 878.4,1311 872.8,1311.6Z" style="fill:white;fill-rule:nonzero;"/>
                        </g>
                        <g id="path3767" transform="matrix(1,0,0,1,0,197)">
                            <path d="M223.2,403.1C203.2,403.3 183.1,403.3 163.2,404.1C157.5,405.4 154,410.9 149.4,414C143.1,419.7 135.8,424.6 130.6,431.2C127.9,436.3 132.5,442.6 138.2,442C181.4,440.2 224.7,440.8 268,439.4C273.8,440 278.4,433 274.9,428.1C267.6,419.4 258.3,412.6 250.1,404.8C244.8,401.4 238.2,403.7 232.3,403.1L223.2,403.1Z" style="fill:white;fill-rule:nonzero;"/>
                        </g>
                        <g id="path3769" transform="matrix(1,0,0,1,0,197)">
                            <path d="M95.9,459.9C81.3,466.7 68.3,477.1 55.8,487.1C46.4,507.1 42.5,529.5 37.2,550.9C34.1,566.9 46.4,581.3 57.2,591.6C66.4,597.4 70.9,585.1 72.1,578.1C82.9,541.5 93.6,504.7 104,468C104.5,463.6 100.2,459.2 95.9,459.9Z" style="fill:white;fill-rule:nonzero;"/>
                        </g>
                        <g id="path3773" transform="matrix(1,0,0,1,0,197)">
                            <path d="M308.8,456.2C297,460.5 306.6,473.6 308.5,481.6C321.2,515.6 331.9,550.5 346.7,583.7C350.5,592.2 361.7,588.8 363.8,580.9C370.5,571.6 372.9,559.7 367.5,549.2C358.2,524 350.1,498 337.6,474.3C329,467.5 319.8,458 308.8,456.2Z" style="fill:white;fill-rule:nonzero;"/>
                        </g>
                        <g id="path3775" transform="matrix(1,0,0,1,0,197)">
                            <path d="M396.1,597.5C386.7,601.3 373.6,599.5 366.9,608.1C365.2,619.2 380.1,621.9 386.3,628.4C416.6,648.7 445.8,671 477.4,689.2C487.7,691.4 490.3,678.4 485.2,671.7C482.3,659.8 476.9,648 465.5,642C443.9,627.1 422.4,611.5 400,598.1C398.6,598.2 397.3,597 396.1,597.5Z" style="fill:white;fill-rule:nonzero;"/>
                        </g>
                        <g id="path3783" transform="matrix(1,0,0,1,0,197)">
                            <path d="M725.3,559.4C716.3,566.5 716.2,580.3 711.7,590.3C702.7,620.8 691.2,650.9 683.7,681.7C685.3,692.4 697.9,688.1 702.6,682.2C719.5,669.3 720.5,646.1 728.9,628.1C733.2,613.3 741.7,599.2 743.1,583.8C738.6,576.1 738.6,561.8 728.5,559.4L725.3,559.4Z" style="fill:white;fill-rule:nonzero;"/>
                        </g>
                        <g id="path3785" transform="matrix(1,0,0,1,0,197)">
                            <path d="M846.3,449.8C828.5,458.3 814.5,473.5 798.3,484.7C780.4,499.3 760.6,512 744,528.1C739,538.7 753,541.8 760.7,541.4C770.6,543.5 781.2,541.7 788.7,534.3C808.2,519.1 829.1,505 846.4,487.4C850.3,476.8 856,464.8 853.3,453.4C851.1,451.5 849.5,449.2 846.3,449.8Z" style="fill:white;fill-rule:nonzero;"/>
                        </g>
                        <g id="path3787" transform="matrix(1,0,0,1,0,197)">
                            <path d="M820.4,285.8C808.4,289.9 817.8,303.7 819.6,311.8C831.9,346.2 844.8,380.2 857.8,414.1C863.2,423.7 874.1,415.7 876.5,408.1C881.8,399.3 890.4,389.7 883.2,379.4C873.7,355.4 867.6,329.7 854.7,307.3C845,299 834.5,290.7 822.5,286C821.8,286.1 821.1,285.6 820.4,285.8Z" style="fill:white;fill-rule:nonzero;"/>
                        </g>
                        <g id="path3795" transform="matrix(1,0,0,1,0,197)">
                            <path d="M1155.4,710.9C1144.6,716.9 1155,729.8 1156.4,738.4C1169,773.2 1180.3,808.6 1194.4,842.8C1199.4,850.8 1208.8,844 1211.1,837.4C1216.5,826.3 1229.3,815 1222.9,801.7C1216.1,779.9 1209.1,758 1200.7,736.9C1187.9,727 1173.8,717.1 1158.7,710.8C1157.7,710.5 1156.5,710.8 1155.4,710.9Z" style="fill:white;fill-rule:nonzero;"/>
                        </g>
                        <g id="path3797" transform="matrix(1,0,0,1,0,197)">
                            <path d="M1184.2,874.3C1148.6,899.4 1113.8,925.8 1079,952C1071.6,955.2 1069.6,966.6 1078.5,969.2C1089.2,972.5 1100.2,978.7 1111.6,977.5C1132.1,968.4 1148.4,951.9 1166.8,939.3C1179.5,930.6 1191.7,918.4 1191.4,901.9C1191,893.2 1198.2,880.8 1189.6,874.9C1187.7,874.2 1186.1,873.3 1184.2,874.3Z" style="fill:white;fill-rule:nonzero;"/>
                        </g>
                        <g id="path3799" transform="matrix(1,0,0,1,0,197)">
                            <path d="M925.7,879.2C915.4,884.4 923.3,897.5 923.8,906C926.2,916 927.3,928.2 938.1,932.9C960.9,948.9 983.7,965 1007.5,979.5C1019.2,980.2 1030.1,973.1 1040.8,969.1C1050.2,962.3 1039.2,952.8 1032.8,949C999.8,925.5 966.2,902.5 932.4,880.1C930.4,879.1 928,878.5 925.7,879.2Z" style="fill:white;fill-rule:nonzero;"/>
                        </g>
                        <g id="path3801" transform="matrix(1,0,0,1,0,197)">
                            <path d="M874.4,865.8C836.3,867.9 797.2,867.3 759,869.7C746.1,876.3 762.2,886.5 769.1,890.5C778.1,897.4 787.5,904.9 799.6,902.7C822.6,903.1 845.9,904.6 868.7,903.5C879.8,897 887.5,885.2 897.4,876.7C904.6,863.1 885.3,864.1 876.8,865.6L875.1,865.7L874.4,865.8Z" style="fill:white;fill-rule:nonzero;"/>
                        </g>
                        <g id="path3805" transform="matrix(1,0,0,1,0,197)">
                            <path d="M590.7,997.9C587.4,1010.5 580,1023.2 580.9,1036.2C589,1059.3 595.1,1083.8 607.8,1104.8C616,1112 625.5,1120.8 636.8,1121.8C648.7,1118.4 640.7,1104.7 638.5,1097.1C626.7,1064 615.3,1030.4 601.8,998.1C599.5,993.8 593.8,994.6 590.7,997.9Z" style="fill:white;fill-rule:nonzero;"/>
                        </g>
                        <g id="path3809" transform="matrix(1,0,0,1,0,197)">
                            <path d="M415.2,875.3C401.9,876.3 386.7,874.2 377,885.5C356.7,902.2 333.4,915.7 315,934.7C309.8,943.5 310.2,954.7 310.6,964.5C317.5,975.2 328.1,961.1 335.4,957C365.7,933.6 398,912.7 427.1,887.9C433.2,879.2 422.7,873.8 415.2,875.3Z" style="fill:white;fill-rule:nonzero;"/>
                        </g>
                        <g id="path3811" transform="matrix(1,0,0,1,0,197)">
                            <path d="M183.5,943.9C174.1,951.6 163.2,957.8 154.8,966.6C151.1,977.3 164.4,978.3 171.6,977.8C209.9,978.1 248.5,980.2 286.8,976.4C300.8,973.1 289.5,959.6 282.6,954.8C276.3,946.9 268.3,939.8 257.4,942.6C233.2,943.3 208.5,941.2 184.6,943.7L183.5,943.9Z" style="fill:white;fill-rule:nonzero;"/>
                        </g>
                        <g id="path3815" transform="matrix(1,0,0,1,0,197)">
                            <path d="M114.3,996.4C100.3,1000.8 88.4,1010.9 77.1,1020C67.3,1041.2 62.8,1064.7 56.8,1087.3C51.1,1103.5 65.1,1117.2 73.5,1129.4C80,1136.5 89.1,1128.6 89.3,1120.9C100.3,1082.4 113.3,1044.3 122.8,1005.4C123.6,1000.5 119.2,995.8 114.3,996.4Z" style="fill:white;fill-rule:nonzero;"/>
                        </g>
                        <g id="path3817" transform="matrix(1,0,0,1,0,197)">
                            <path d="M97.2,1162C85.5,1165.7 93.4,1180.1 94.1,1188.4C96.2,1200.2 100.8,1212.5 112.4,1217.9C131,1230.4 148.8,1245.1 168.5,1255.5C181.5,1254.5 196,1254.1 207.7,1247.6C215.6,1237.8 200.5,1231.9 194.4,1226.9C162.6,1206.6 134.7,1180.9 101.6,1162.8C100.3,1162.1 98.7,1161.8 97.2,1162Z" style="fill:white;fill-rule:nonzero;"/>
                        </g>
                        <g id="path3819" transform="matrix(1,0,0,1,0,197)">
                            <path d="M636.8,1152.7C623.8,1158.9 612.7,1169.2 601.5,1178.1C593.5,1199 586.1,1220.8 580.6,1242.7C578.4,1258 587.5,1272.2 594.5,1285C602.3,1292.3 608.9,1280.9 609.6,1273.8C621.3,1236 634,1198.4 644.7,1160.3C644.9,1155.9 641,1152.8 636.8,1152.7Z" style="fill:white;fill-rule:nonzero;"/>
                        </g>
                    </g>
                    <g id="faces">
                        <g id="white" transform="matrix(1,0,0,1,0,197)">
                            <path id="path3765" d="M707.5,14.9C690.2,27.4 673.1,40 656,52.8C635.5,67.8 614.8,82.7 594.6,98.1C588.8,102.7 582.5,106.6 576.8,111.2C573,116.6 577.2,122.9 578.7,128.4C590.3,159.6 600.4,191.3 611.7,222.6C617.6,237 621.6,252.1 628.1,266.3C632.1,273.5 641.6,272.1 648.5,272.3C696,271.9 743.4,270.9 790.8,268.8C795.7,268.8 801.9,268.1 803.7,262.7C810.8,243.7 815.7,224 822,204.8C830.8,175.9 840.4,147.2 849.3,118.4C851.4,113.1 850.5,106.4 845.3,103.3C819,84.5 791.9,66.7 765.2,48.3C749.2,37.7 733.8,26.2 717.3,16.6C714.4,14.8 711,13.2 707.5,14.9Z" style="fill:white;fill-rule:nonzero;"/>
                            <path id="path3771" d="M233.9,442.7C195.5,443.4 157.1,443.1 118.8,446.1C109.2,451.2 110.7,465 106.3,473.8C94.1,517.4 79.9,560.4 69.6,604.5C67,617.2 83.1,621 90.2,628.1C129.5,655.6 168.6,683.5 209,709.3C220.2,709.9 227.7,698.6 236.8,693.5C272.9,665.3 310.5,638.8 345.4,609.1C351.1,597.4 341.5,584.9 338.9,573.5C323,531.1 308.5,487.9 291.1,446.4C282.8,439.6 269.9,444.5 259.7,442.7C251.1,442.6 242.5,442.7 233.9,442.7Z" style="fill:white;fill-rule:nonzero;"/>
                            <path id="path3777" d="M580.7,445.8C561.6,453.5 546.3,468.5 529.4,479.9C502.5,500.6 474,519.5 447.9,541.2C442.8,551.6 451.9,562.8 453.7,573.2C468.7,615.7 482.7,658.6 498.8,700.6C509.2,707.6 523.3,703 535.1,704.2C579.7,703 624.4,702.6 669,700.8C679.2,695.6 677.8,681.3 682.5,672.1C695.5,629.5 709.5,587 720.8,543.9C718.6,532.2 704.8,527.5 696.8,520.2C660.3,495.6 625,469 586.8,447.1C584.9,446.2 582.8,445.5 580.7,445.8Z" style="fill:white;fill-rule:nonzero;"/>
                            <path id="path3779" d="M351.7,613.1C330.8,624.2 312.9,640.4 293.6,654.1C268.9,673.8 242.5,691.7 219.3,713.1C213.3,724.3 222.8,736.7 225.1,747.8C240.5,789.9 255.1,832.6 271.5,874.1C279.3,881.1 291.7,875 301.6,876C348.6,873.4 396,874.3 442.9,869.8C453.4,863.4 452.7,848.3 457.4,838.1C469.7,795.1 483.3,752.2 494.5,709C491.6,698.2 477.9,694.7 469.6,688.1C431.3,663.7 395.4,635.2 355.6,613.4C354.3,613 353,613.1 351.7,613.1Z" style="fill:white;fill-rule:nonzero;"/>
                            <path id="path3781" d="M605.6,706.1C571.3,706.9 536.6,705.7 502.6,710C494.2,715.6 496.4,728.1 492,736.5C480.2,779.7 464.5,822.1 454.1,865.7C454.8,878.6 469.8,883.9 478.1,891.6C515.7,918 553.8,943.8 592.2,969.1C603.2,971.1 610.3,958.9 619.3,954.3C655.4,927 691.7,899.8 727.6,872.2C734,863.4 724.7,853 723.3,843.8C707.5,799.1 692.6,753.6 674.4,710C665.8,703.2 652.6,708.1 642.1,706.3C629.9,706.1 617.8,706 605.6,706.1Z" style="fill:white;fill-rule:nonzero;"/>
                            <path id="path3789" d="M780.7,272.6C732.4,273.4 684,273.3 635.8,276.4C624.3,283.7 625.3,300.2 620.2,311.6C608.4,353 595.6,394.4 585.3,436C588,446.4 601.7,449.9 609.2,457C646.9,482.6 683.9,509.1 722.3,533.4C733.1,534.5 740.2,523.1 749.1,518.5C784.5,492.3 819.4,465.5 853.6,437.9C863.5,427.1 851.7,412.9 849.5,401.4C834.5,360.2 819.8,318.8 804.1,278C799.5,269.6 788.4,273.6 780.7,272.6Z" style="fill:white;fill-rule:nonzero;"/>
                            <path id="path3791" d="M814.3,603C801,608.4 790.7,620.1 778.5,628C746.8,652.8 713.4,675.6 683.1,702C674.5,712.1 685.7,724.7 687.6,735.3C703.2,778.1 718,821.5 734.9,863.6C741.9,870.3 753.4,864 762.3,865.5C810.6,863.5 859.5,864.9 907.6,860.3C916.1,854.8 915.3,841.8 919.5,833C932,789.6 947.3,746.9 957.7,702.9C956.8,688.5 939.9,683.5 930.2,675.8C892.7,653.5 858.3,626.3 820.6,604.5C818.7,603.6 816.5,602.9 814.3,603Z" style="fill:white;fill-rule:nonzero;"/>
                            <path id="path3793" d="M1055.6,696.5C1026.8,697.6 997.6,696.3 969,699.4C957.7,702.7 960.1,717.2 955.6,725.8C942.8,768.7 928.6,811.3 917.5,854.7C914,867.8 930.3,872.5 937.8,879.5C976.4,906 1014,934.1 1054,958.4C1065.3,963.1 1074.1,949.9 1082.9,945C1118.3,917.5 1155.4,892.2 1190.3,864.1C1198.4,855.2 1188,843.2 1186.7,833.4C1171,788.4 1155.4,743 1138.4,698.7C1130.5,691.5 1117.5,697.3 1107.4,695.7C1090.1,696 1072.8,696.2 1055.6,696.5Z" style="fill:white;fill-rule:nonzero;"/>
                            <path id="path3807" d="M448.9,880.2C435.6,884.6 425.5,896.2 413.7,903.6C380.6,929.1 345.5,952.3 313.3,978.9C309.8,989.7 318.8,1000.5 320.8,1011.1C335.3,1053.1 349.6,1095.2 364.5,1137C372.7,1145.2 386.3,1140.4 396.7,1141.9C443.8,1141.1 490.9,1141.2 538,1138.1C548.7,1133.3 547.1,1118.2 552,1108.6C565,1065.6 579.4,1022.9 591.1,979.5C589.4,968.6 576.1,964.8 568.8,957.9C531.5,933 495.5,906 457.3,882.6C454.7,881.3 451.9,880.1 448.9,880.2Z" style="fill:white;fill-rule:nonzero;"/>
                            <path id="path3813" d="M135.2,983.1C124.7,1009.4 118.4,1037.6 109.6,1064.7C103,1089.8 93.1,1114.4 89,1140C90.9,1155 108.6,1159.9 118.4,1168.8C153.3,1193.1 186.6,1221 224.1,1241.6C235.9,1242.2 244.5,1230.8 254.3,1225.6C290.1,1199.4 326.2,1173.1 360.8,1145.4C365.5,1136.5 356.7,1126.6 355.2,1117.5C339.3,1073.7 324.9,1029 308.3,985.7C300.4,978.5 287.4,983.9 277.5,982.2C231.2,982.4 184.6,980.9 138.4,982.1L136.8,982.7L135.2,983.1Z" style="fill:white;fill-rule:nonzero;"/>
                            <path id="path3821" d="M800.1,1134.2C753.4,1136.4 706.6,1136.2 660,1140C650.3,1146.2 651,1160.4 646.2,1170.1C633.2,1212.8 618,1255 606.2,1298C606,1309.3 620.2,1312.8 626.9,1319.7C664.6,1346.6 702.8,1372.9 741.5,1398.3C752.8,1400.4 760.2,1387.9 769.2,1383.2C806.4,1354.3 845.7,1327.9 881.1,1296.7C886,1287.6 876.8,1277.6 875.6,1268.4C860.4,1224.6 846.5,1180 830.3,1136.7C823.6,1129.4 809.3,1135.5 800.1,1134.2Z" style="fill:white;fill-rule:nonzero;"/>
                            <path id="path3742" d="M588.6,970.9C587.6,970.5 568.5,957.5 546.3,942.1C524.1,926.7 493.4,905.7 478.1,895.4C451.8,877.6 450.4,876.5 451.2,872.4C451.7,870.1 463.3,832.9 477.1,789.7L502.1,711.3L587.1,708.5C638.2,706.8 672.7,706.6 673.7,708C674.6,709.2 679,721.1 683.4,734.3C710.7,815 727.2,865.2 727,867C726.9,868.1 699.8,889.5 666.9,914.4C593.8,969.9 591,971.9 588.6,970.9Z" style="fill:white;fill-rule:nonzero;"/>
                        </g>
                        <g id="colours" transform="matrix(1,0,0,1,0,197)">
                            <path id="path3745" d="M662,491.9C627.1,468.2 595.6,446.3 592,443.1L585.4,437.3L608.2,358C620.8,314.4 631.6,278.2 632.3,277.4C633.8,275.9 711,273.6 766.2,273.4L803.1,273.3L832.1,352.4C854.2,412.8 860.6,432.1 859.1,433.9C857.1,436.3 801.2,480 773.3,500.9C752.5,516.5 746.9,520.7 736.9,528.3C732.1,531.9 727.6,534.9 726.9,534.9C726,534.9 696.9,515.6 662,491.9Z" style="fill:rgb(235,105,42);fill-rule:nonzero;"/>
                            <path id="path3747" d="M359.4,867.9C312.8,869.7 273.5,871 272.2,870.8C270.2,870.5 233.9,778 211.9,717.3L209,709.3L220.4,699.4C226.7,693.9 257.8,669.3 289.5,644.7L347.1,600L356.4,606C361.5,609.3 389.3,627.3 418,645.9C446.7,664.5 475.4,683 481.6,686.9C487.8,690.8 493.2,695 493.5,696.2C494,698.1 484.3,733.5 455.4,835.3C451.2,849.9 447,862.5 446,863.2C445.1,864 406.1,866.1 359.4,867.9Z" style="fill:rgb(247,241,28);fill-rule:nonzero;"/>
                            <path id="path3803" d="M732.1,873.9C687.5,906.1 643.6,939.3 601,974.1C596.2,984.3 605.7,994.8 607.7,1004.8C623.8,1045.9 637.2,1088.2 654.3,1128.9C662.1,1138.7 676.9,1132.8 687.6,1134.2C733.1,1132.9 778.6,1132.1 824,1129.4C833.9,1123.9 833.3,1110.1 837.8,1100.7C851,1057.7 864.2,1014.7 876.5,971.4C875.4,960.1 861.1,957.3 854,950.2C815.6,924.4 777.4,897.9 738.3,873.5C736.1,872.5 734.2,872.7 732.1,873.9Z" style="fill:rgb(38,220,240);fill-rule:nonzero;"/>
                        </g>
                    </g>
                    <g id="layer101" transform="matrix(0.981419,0,0,0.981419,-29.9065,130.733)">
                        <g id="frame">
                            <g id="layer1011" serif:id="layer101">
                                <path id="path4" d="M900.4,1171C897.9,1179.7 893.4,1194.1 890.4,1203.4L885,1220L891.3,1237.6C894.7,1247.3 898.2,1257.3 898.8,1259.7C901.3,1268.7 917.2,1315.1 919.9,1321.2C921.5,1324.8 926.1,1339.2 927.1,1343.3C928.1,1347.5 931.9,1356.8 932.9,1360.5C933.9,1364.2 935.4,1368.6 936,1370.2C936.6,1371.8 937.9,1375.3 938.8,1377.7C941.5,1384.7 941.5,1413.1 938.9,1422.5C938.2,1425 934.6,1463.8 934.1,1464.3C928.9,1468.8 904.2,1487.3 901.4,1488.6C899.3,1489.8 894.2,1493.2 890.2,1496.4C880.6,1504 861.4,1518.2 852.6,1524.5C845.5,1529.4 819.1,1519.6 815.8,1518.1C805.6,1513.8 793.5,1508.2 790.7,1506.8C789.2,1506.1 787.4,1505.8 786.7,1506.2C784.9,1507.2 771.6,1510.7 763.6,1512.2C760.3,1512.6 743.7,1517.7 738.1,1517.8L727.8,1518.1L704.7,1502.3C692,1493.6 673.9,1481.2 664.7,1475C655.4,1468.6 647.2,1461.9 646.6,1460.2C645.9,1458.4 645,1453.6 644.4,1449.4C643.8,1445.4 642.8,1438.6 641.9,1434.5C641.2,1430.5 639.2,1420.3 637.7,1412.1C634.9,1397.6 633.2,1393.3 617.2,1359.2C608.8,1341.4 608.2,1339.2 611.1,1332.5C613,1327.6 616.6,1316.7 623.5,1294.1C624.8,1290.1 626.3,1285.3 627.1,1283.6C627.7,1282 629.2,1277.6 630.2,1273.9C631.2,1270.2 633.3,1265.4 634.8,1263.1C637.8,1258.8 651.4,1248.2 670.8,1235.2C677.1,1230.9 682.3,1227.1 682.3,1227C682.3,1226.3 667.2,1216.7 662.6,1214.3C660.5,1213.3 654.1,1208.8 648.6,1204.6C639.8,1198 638,1195.9 636.1,1189.5C634.8,1185.5 633.1,1180.7 632.5,1179C631.9,1177.3 630.7,1174.4 630.1,1172.3C623.7,1152.9 618.2,1142.1 618.2,1149.3C618.2,1151.1 614.3,1163.9 610,1176.5C609.7,1177.5 608.7,1181.1 607.8,1183.5C606.8,1186 605.1,1191.7 603.9,1196.2C602.7,1200.7 601.1,1205.8 600.3,1207.4C599.6,1209 597.9,1214.3 596.7,1218.9C591.8,1238.5 593.7,1237.7 545,1238.8C493.9,1239.8 421.7,1241 413,1241C407.3,1241 404.9,1242 396.9,1248.3C391.8,1252.5 379.1,1262 368.8,1269.7C358.5,1277.3 348.3,1284.9 346.1,1286.6C343.9,1288.2 337.1,1293 331.2,1297.4C325.3,1301.8 311,1312.3 299.7,1321C288.2,1329.7 278.6,1336.7 278.3,1336.7C277.9,1336.7 275,1338.6 272,1341C266.3,1345.6 257.8,1347.7 214.7,1355.3L200.2,1357.8L187.8,1349C180.9,1344.1 166,1333.8 154.5,1326C129.9,1309.4 120.9,1301.2 120.9,1294.9C120.9,1294 115.6,1272.2 115,1268.9C111,1246.6 108.4,1238.7 102.5,1229.9C99.1,1225.1 95.6,1220 94.9,1218.7C94,1217.4 89.1,1210 83.8,1202.3C77.2,1192.6 74.7,1187.4 75.1,1185.1C75.5,1183.5 77.6,1176 79.7,1168.5C81.8,1161.2 84.9,1150.4 86.4,1144.6C87.9,1138.9 91,1127.1 93.4,1118.5C95.6,1109.8 98.2,1101.9 99.1,1100.7C101.8,1097.3 116.4,1086.8 125.4,1082.2C129.9,1079.8 134.7,1077 135.9,1075.8C137.2,1074.8 141.6,1072.1 145.6,1069.8C149.8,1067.7 154.4,1064.7 156.2,1063.1C157.8,1061.6 167.6,1056 174,1050.6C180.6,1045.2 188.3,1039.3 191.2,1037.2C194,1035.3 200.8,1030.2 206.1,1026L215.8,1018.5L260.2,1018.5C285,1018.5 306.2,1019.1 308.3,1020C310.4,1020.7 317.7,1026.7 324.4,1033.3C331.1,1039.9 336.9,1045.1 337.1,1044.9C337.2,1044.6 337.7,1038.3 338.1,1030.7C339,1016.4 341.2,1010.4 346.8,1008.7C348.3,1008.1 381.7,982.6 385.4,979.6C389.1,976.6 393.9,973 396.3,971.7C400.8,968.9 401.8,965.6 397.8,966.8C394.8,967.7 357.2,968.9 325.2,969.3C302.9,969.4 300,968.6 298.3,961.2C297.6,957.9 288,930.7 285.5,925.1C283.3,919.7 278.2,905.8 276.4,899.7C275.4,896.4 267.3,874.4 265.8,871C264.2,867.4 247.3,818.5 246.7,817.6C246.1,816.9 244.8,812.8 243.6,808.8C241.2,800.4 237.9,797.6 204.9,775.3C193.8,767.8 178,757.1 169.8,751.4C143.1,732.7 98.7,702.6 95.1,700.8C90.8,698.4 89.1,696.3 84.2,687.2C77.9,675.4 71.8,665.1 64.2,653.2C55.8,640.2 55.2,635.1 60.2,619.7C61.8,614.3 65.9,599.7 69.2,587.1C72.6,573.4 76.4,562.5 78.5,559.6C80.3,557.1 86.7,551.7 92.7,547.4C98.8,543.2 108.2,536.6 113.6,532.6C119.1,528.7 127,523.3 131.1,520.5C137.1,516.5 172.8,486.8 188.1,472.9C190.5,470.8 193.9,469.9 201.5,469.6C220.6,468.7 279,468.9 283.6,469.7C287.6,470.4 313,491.1 323,501.5C324.3,503 334.3,510 345.3,517.5C376.8,538.9 383.8,544.4 387.1,551.2C388.7,554.6 396.7,577.5 397.4,579C398.1,580.3 400.1,585.3 401.9,589.8C422.8,647.1 421.8,641.9 415.2,654.3C412.2,659.7 409.2,666.2 408.2,668.9C406.7,673.2 406.9,673.5 409.2,672.6C410.5,672.2 413.8,671.3 416.2,670.8C418.7,670.4 422.5,669 424.7,668C426.9,666.8 431.3,665.9 434.6,665.9C440.3,665.9 453.6,674.1 493.4,702.2L503.4,709.4L501.9,704.5C501,701.8 500,698.2 499.5,696.6C499.1,695 495.1,685.5 493.3,679.4C491.4,673.3 488.7,665.5 487.2,662.2C485.9,658.9 483.9,653.2 482.7,649.5C481.7,645.8 476.9,631.6 475.2,628.3C473.6,624.9 472.2,621.3 472.2,620.4C472.2,618.2 481.3,609.8 493.9,600.7C499.7,596.5 513,586.7 523.6,578.7C534.1,570.8 551,558.4 551.6,558.4C552.3,558.4 558.2,554.2 564.6,549C571,543.9 579.1,537.8 582.7,535.3C597.9,524.5 609.3,515.9 613.2,512.3C617.8,508 620.1,501.5 631.6,458.4C633.7,450.6 636.4,441.2 637.7,437.5C639.9,430.8 642.5,421.8 649.3,397.2C651.1,390.2 655,377.5 657.5,368.8C663.6,349.1 664.2,345.5 662.3,341.5C661.4,339.7 659.3,334.2 657.7,329.3C655,320.9 648,300.9 629.2,247.9C625,236 620.2,222.4 618.7,217.6C617.1,212.8 614.8,206.8 613.6,204.2C609.1,193.9 606.4,182.5 607.9,179.7C610,176 614.9,171.5 624.8,164.8C632.6,159.4 677.1,126.4 694.5,113C698.8,109.6 706.7,103.9 712,100.2C731.6,86.5 750.8,71.5 753.3,71.1C757.3,70.2 761.5,72.4 794.7,94.8C828.6,117.6 872.1,147.2 894.3,162.6C903.7,169 908.3,174.4 908.3,178.6C908.3,181.1 908,182.2 896.4,219.7C884,259.4 880,272 875.3,286.3C872.9,293.8 858.8,340.5 859.8,342.1C860.2,342.8 873.5,348.5 882.5,354.4C891.3,360.4 901.3,366.6 904.6,368.3C909.4,370.7 911.2,372.8 913.4,378.8C914.9,383 927.6,418.3 928.8,421C930.9,425.9 937.6,443.5 942.2,457.1C945,465.3 944,468.7 933.2,485.9C920.8,506.1 917.8,512.9 912.9,532C904.2,566 902.7,569.8 894.8,576.8C890.8,580.4 885.1,585 881.8,587.4C878.7,589.6 870.7,595.6 864.3,600.8C857.9,605.9 850.7,611.4 848.5,613C846.3,614.6 840.6,619 835.8,622.6L827.1,629.2L815,628C790.4,625.9 784.2,625.6 784.2,626.5C784.2,627.4 790.2,642 795.4,653.8C798.4,660.4 798.2,669 794.8,678.4C793.3,682.6 788.5,695.9 784.2,707.5C780,719.3 776.9,729.3 777.2,729.8C777.8,730.4 785.6,724.7 809.3,706.5C813.6,703.1 817.5,700.4 818,700.4C818.7,700.4 838.5,685 849.5,675.8C860.4,666.7 861.1,667 900.1,693.3C918.9,706 941.8,721.5 951,727.9C960.3,734.2 971.8,741.5 976.7,744.2C981.6,746.9 991.9,753.3 999.5,758.7L1013.4,768.4L1103.1,768L1192.8,767.4L1206.5,776.5C1214.1,781.6 1246.8,801.1 1256.4,808.4C1260.2,811.3 1264.5,817.3 1266.6,822.1C1267.4,824 1272.6,840.8 1275.3,849C1277.8,857.2 1280.5,865.3 1281.3,866.9C1282,868.5 1283.4,872.6 1284.4,875.9C1285.3,879.2 1286.6,882.9 1287.2,884.1C1290.9,891.7 1290.3,895.6 1284.2,907.4C1280.9,914 1273.7,925.3 1268.5,932.6C1260.4,944.1 1258.9,947.1 1258.8,952.8C1258.8,956.5 1257.8,966.2 1256.4,974.5C1255.2,982.7 1253.6,993.8 1253,999.1C1252.3,1004.5 1251.2,1010 1250.6,1011.5C1249.7,1013.7 1229.2,1030 1210.9,1043.2C1206.4,1046.5 1197.2,1053.4 1185.2,1062.6C1171.2,1073.4 1167.9,1075.3 1163.5,1075.3C1159.1,1075.3 1151.9,1073.4 1146,1070.7C1144.4,1070 1139.3,1068.5 1134.8,1067.3C1130.3,1066.1 1123.6,1064.2 1120,1062.8C1112.8,1060.1 1103.6,1062.2 1102.6,1062.6C1099,1063.9 1090.5,1066.4 1087,1067.8C1071.2,1074.1 1062.5,1076.9 1059.4,1076.9C1056.7,1076.9 1032.7,1061.4 987,1029.9C968.9,1017.5 967.9,1016.5 965.9,1006.9C965,1002.3 958.6,975.7 958.6,973.2C958.6,962.9 955.9,964.1 938.4,981.4L921.8,998L890.9,997.6C873.9,997.3 860,997.6 860,998C860,999.3 897.3,1021.9 922.3,1039.2C932.9,1046.5 936,1052.3 933.5,1059.7C932.6,1062.2 930.8,1068.7 929.5,1074C928.2,1079.3 925.5,1088.5 923.5,1094.2C921.7,1100 919.3,1107.3 918.4,1110.6M849.9,1507C853.3,1504.6 869.9,1492.2 876.7,1487.1C883.6,1481.9 896,1472.8 904.2,1466.6L919.3,1455.5L920.3,1442.7C920.7,1435.7 921.8,1427 922.4,1423.6C923.1,1420 921.8,1408.5 921.8,1408.5L914,1414C909.7,1417 895.6,1427.4 882.8,1437.3C870,1447.2 858.5,1456 857,1456.7C855.7,1457.6 849.4,1462.2 843,1467.2C836.6,1472.1 829.7,1477.2 827.9,1478.4C821.5,1482.6 806.1,1495.6 806.1,1496.8C806.1,1497.4 806.8,1497.8 807.7,1497.8C808.6,1497.8 811.7,1498.8 814.7,1500.2C817.8,1501.5 822.6,1503.6 825.5,1504.8C828.3,1506.1 832.4,1507.9 834.5,1509C840.2,1512.1 843.1,1511.6 849.9,1507ZM747.1,1500C752,1498.7 758.9,1497.2 762.5,1496.6C765.9,1495.9 769.2,1495.1 769.7,1494.7C770.1,1494.1 762.8,1488.6 753.6,1482.2C744.3,1475.9 726.3,1463.5 713.6,1454.7C700.9,1446 686.7,1436.3 682.2,1433C663.4,1419.6 655.6,1414.3 654.7,1414.3C653.7,1414.3 655.6,1427.1 659.9,1446.9L661.5,1454.7L686.1,1471.3C699.5,1480.4 715.8,1491.3 722.1,1495.6C728.4,1499.9 734.6,1503.2 735.8,1502.9C737.1,1502.5 742.2,1501.3 747.1,1500ZM794.5,1484.2C797.2,1482.3 803.9,1477.2 809.1,1473C814.5,1468.7 825.8,1460 834.5,1453.6C866.8,1430 884.7,1416.6 892,1410.6C896.2,1407.2 903.1,1401.9 907.4,1399C911.9,1396 917.4,1391.8 920.1,1389.6L924.7,1385.7L922,1377.3C920.5,1372.5 918.7,1367.4 918,1365.8C917.4,1364.2 911.4,1346.7 904.9,1327C889.5,1281.2 889.8,1282.1 886.7,1273.2C885.2,1269.2 881.2,1257.5 877.7,1247.4L871.4,1229L837.7,1229.9C806.2,1230.6 716.9,1233.5 706.9,1234.1C703.3,1234.4 702.3,1235.1 702,1238.1C701.7,1240.2 701,1243.2 700.4,1244.8C699.7,1246.4 697.6,1252.9 695.8,1259C693.9,1265.1 691.2,1273.6 689.8,1277.7C688.3,1281.9 685.8,1289.9 684.1,1295.6C682.5,1301.4 679.8,1310.1 678,1315C676.4,1319.9 672.5,1332 669.5,1341.9C666.7,1351.8 663.7,1361.2 663.1,1362.8C662.4,1364.4 659.8,1371.9 657.3,1379.5C652.2,1394.9 651.6,1392.9 664.5,1401.8C668.2,1404.3 677.3,1410.6 684.7,1415.7C692.2,1420.9 708.9,1432.3 722,1441.2C735.1,1450.2 755.6,1464.2 767.5,1472.4C779.4,1480.6 789.3,1487.3 789.5,1487.3C789.4,1487.4 791.8,1486 794.5,1484.2ZM644.7,1366.9C647.7,1356 659.8,1317.9 664.6,1304.3C666.8,1297.7 668.8,1291.5 668.8,1290.4C668.8,1288.3 676.6,1263.8 680.7,1252.6L683.4,1245.6L674.1,1252.2C649.8,1269.7 647.8,1271.3 646.8,1275C646.4,1277.1 632.3,1320.8 630.3,1326C625.8,1337.5 626,1340.2 631,1351.5C633.7,1357.6 637.1,1365.1 638.3,1368.2C639.6,1371.2 641.1,1373.7 641.7,1373.7C642.3,1374 643.5,1370.8 644.7,1366.9ZM237.7,1334.8C240.1,1333 237.3,1330.8 210.7,1312.8C194.4,1301.7 178.4,1290.3 175.2,1287.3C170.1,1282.8 147,1266.5 132.3,1257.3L128.1,1254.6L129,1260.3C129.4,1263.3 130.8,1269.9 132.1,1274.8C133.4,1279.7 134.8,1286.3 135.4,1289.3C136.1,1294.2 137.6,1295.9 149,1303.6C156,1308.4 165.4,1314.8 169.9,1318.1C201.3,1340.5 202.5,1341.1 210.8,1340.2C215,1339.6 236.2,1335.8 237.7,1334.8ZM269.7,1322.9C273.6,1320.4 281.2,1314.5 286.7,1310.2C292.2,1305.9 297.2,1302.3 297.8,1302.3C298.2,1302.3 324.3,1283.1 330.6,1278C336.9,1272.8 343.1,1268 344.5,1267.1C346,1266.4 357.6,1257.7 370.3,1248L393.7,1230.4L391,1221.9C389.5,1217.3 385.2,1205 381.6,1194.7C377.9,1184.4 374.1,1173.6 373.1,1170.8C372.1,1168 370.6,1164.4 370,1163C369.3,1161.5 362.3,1140.5 361.4,1137.2C360.4,1133.9 359,1129.9 358.3,1128.2C355.2,1120.9 344.1,1088.6 342.6,1084.1C341.1,1079.6 339.5,1075.3 338.9,1074.5C337.9,1073.5 308.4,1073.3 200.9,1074.2L172.7,1074.5L170.5,1081.1C169.3,1084.8 167.8,1089.2 167.2,1090.8C166.6,1092.4 165.3,1096.6 164.4,1100.2C160.7,1114.2 159.2,1119.8 155.3,1131.9C153.1,1138.9 150.4,1148.2 149.3,1152.5C148.3,1156.7 140.1,1184.6 137.4,1190.9C136.8,1192.5 135.5,1197.3 134.4,1201.4C133.4,1205.6 131.4,1212.3 129.8,1216.3C128.3,1220.5 126.8,1226 126.7,1228.8C126.3,1233.6 126.7,1234 151.6,1250.9C165.6,1260.3 179.4,1270.2 182.2,1272.9C185,1275.6 195.2,1283.1 204.6,1289.6C233.3,1309.2 242.4,1315.3 250.9,1321.6C255.4,1324.7 260,1327.4 261.1,1327.6C261.8,1327.7 265.8,1325.6 269.7,1322.9ZM408.1,1225.2L479.8,1224C519.2,1223.3 555.5,1222.5 560.5,1222.4C580.5,1221.7 578,1223.3 582.8,1207.9C585.2,1200.3 588.3,1190.3 589.7,1185.8C598.1,1159.8 600.2,1152.8 602.5,1144C603.8,1138.6 611.7,1113.9 612.8,1111.1C615.6,1103.8 625,1072.4 626.2,1066.9C627.1,1062.4 626.6,1062.1 599,1043.5C583.6,1033 559.9,1016.9 546.3,1007.7C532.7,998.4 516,986.9 509,982.2C502,977.4 495.1,972.5 493.6,971.1C491.2,969 490.6,969 486.1,971.1C483.3,972.4 478,976 474.3,979.2C470.4,982.5 463.1,988.2 457.9,991.9C452.7,995.6 440.4,1004.7 430.7,1012.1C420.8,1019.4 408.2,1028.8 402.3,1032.9C396.5,1037.1 383.2,1046.6 372.7,1054.4L353.9,1068.4L359.7,1085.7C363,1095.3 366.3,1104.4 366.9,1106C367.6,1107.6 368.7,1110.3 369,1112C369.7,1114.8 376.3,1133.7 378.9,1140.4C380.1,1143.2 382.3,1149.8 387.4,1164.7M749.4,1216.6C767,1216.2 794.9,1215.3 811.4,1214.7C827.8,1214.1 844.7,1213.5 848.7,1213.5C870.1,1213.1 869.9,1213.1 871.5,1208.7C872.4,1206.3 874.9,1198.1 877.2,1190.3C879.4,1182.5 881.7,1175.1 882.3,1173.9C883,1172.7 892.1,1140.2 895.1,1131.1C898.1,1122.1 900.8,1113.5 901.2,1111.8C901.9,1108.4 902.4,1106.7 903.4,1103.6C904.1,1101.4 908.6,1086.4 912.7,1073C913.9,1069 915.5,1063 916.4,1059.9L917.9,1054.2L895.6,1039.4C883.4,1031.2 804,979 790.3,969.4C785.5,966.1 781,963.3 780.4,963.3C779.2,963.3 761.9,975.8 741.3,991.7C733.2,997.8 722.5,1005.9 717.4,1009.6C712.2,1013.3 705,1018.9 701.3,1021.8C697.6,1024.8 685.9,1033.7 675.3,1041.7C645.9,1063.5 646,1063.4 647.1,1066C647.7,1067.5 649.8,1073.3 651.9,1079C654,1084.8 659.6,1100.4 661.1,1104C665.9,1114.8 678.6,1150.1 680.2,1155C689.9,1182.6 702.3,1216.4 703.2,1217C703.8,1217.4 707.2,1217.6 710.8,1217.4C714.3,1217.5 731.7,1217 749.4,1216.6ZM116.2,1206C116.8,1204.4 118.9,1197.3 120.7,1190.3C122.5,1183.3 125.9,1171.6 128.3,1164.5C130.7,1157.2 132.6,1150.3 132.6,1149.4C132.6,1148.4 135.3,1139.4 138.6,1129.4C141.9,1119.5 144.7,1109.8 145.2,1107.9C145.6,1106 147,1100.9 148.3,1096.6C149.6,1092.3 150.5,1087.9 150.2,1087.2C149.8,1085.9 141.1,1090.9 126.3,1101.1C124.1,1102.6 111.9,1110.4 111.2,1113.8C110,1119.8 104.3,1140.7 101.8,1148.6C100.5,1152.3 99,1158 98.2,1161.3C97.6,1164.6 95.8,1171.6 94.5,1176.8C92,1186.2 92,1186.4 95.2,1192.5C97.1,1195.8 101.8,1203 105.5,1208.2L112.2,1217.8L113.5,1213.5C114.4,1210.9 115.4,1207.6 116.2,1206ZM679.8,1200.4C678.6,1196.8 677.1,1192.6 676.4,1191C674.3,1185.8 670,1173.2 668.9,1168.6C668.2,1166.1 666.7,1161.7 665.3,1158.9C663.2,1154.1 649,1116.2 644.7,1103.6C643.7,1100.8 641.9,1095.4 640.7,1092L638.5,1085.4L633.6,1100.2C630.8,1108.3 628.5,1116.9 628.5,1119.5C628.5,1123.7 638,1151.1 638.7,1152.6C639.4,1153.9 641.5,1159.2 643.3,1164.1C645.1,1169 647.2,1174.4 647.8,1176C648.5,1177.6 649.7,1181.1 650.5,1183.5C651.8,1188.3 661.8,1196.8 673.2,1202.8C682.3,1207.6 682.3,1207.6 679.8,1200.4ZM1064.6,1058.7C1067.4,1057.8 1071,1056.6 1072.7,1055.9C1074.3,1055.2 1079,1053.5 1082.9,1052C1086.8,1050.7 1090.4,1049 1090.7,1048.4C1091,1047.8 1081.7,1040.8 1070.1,1032.9C1051.1,1020.1 1018.9,998 989.2,977.6C983.5,973.6 977.6,969.2 975.9,967.9C973.2,965.7 973.2,965.8 974.3,973C974.9,977.2 976.2,983.2 977.3,986.4C978.3,989.7 980,996.1 981,1000.6L982.8,1008.8L1009.7,1026.7C1024.5,1036.6 1041.4,1048.2 1047.2,1052.4C1053.2,1056.7 1058.4,1060.3 1058.8,1060.3C1059.2,1060.3 1061.8,1059.6 1064.6,1058.7ZM324.7,1056.9C325,1056.6 320.1,1051.2 313.8,1045L302.3,1033.7L221.9,1033.7L206.8,1045C198.4,1051.3 191,1056.9 190.2,1057.5C189.6,1058.1 219.3,1058.4 256.5,1058.1C293.7,1057.8 324.4,1057.2 324.7,1056.9ZM1168.7,1054.8C1174.4,1050.8 1187.5,1040.8 1207.5,1025.2C1212.9,1021.2 1218.6,1017 1220.3,1015.9C1222,1014.8 1226.3,1011.6 1229.7,1008.4C1236.6,1002.3 1236,1004.8 1240.2,969.3L1240.9,962.7L1236.7,965.8C1234.3,967.6 1224.6,974.8 1215.2,981.6C1205.8,988.4 1186.5,1002.8 1182.9,1005.9C1179.2,1008.9 1171.8,1014.4 1166.6,1018.1C1131.7,1043.2 1126.7,1047.1 1128.8,1048.3C1131.2,1049.6 1140,1052.5 1150.9,1055.6C1154.6,1056.6 1158.4,1057.7 1159.1,1057.8C1162.3,1059 1163,1058.9 1168.7,1054.8ZM728.4,836.9C726.8,833.3 720.4,814.3 717.5,806.6L712.3,792.4L684.2,792.7C668.8,793 640,793.4 620.3,793.7C600.6,794.1 575.6,794.4 564.7,794.4L545,794.5L542.8,803.2C541.5,807.8 539.7,814.4 538.8,817.7C537.9,821 536,827.1 534.5,831.1C533,835.3 531.1,841.4 530.2,845C529.3,848.4 527.8,854.1 526.9,857.7C526,861.1 524.7,865.3 523.9,867C523.3,868.6 519.9,879.7 516.4,891.6C513,903.5 509.7,914.6 508.9,916.2C508.3,917.8 507.1,921.6 506.2,924.4C505.5,927.2 503.4,934 501.7,939.3C496.9,954.1 496.9,954.2 511.4,964.1C518.4,969 526.9,975 530.4,977.5C533.8,980 551.2,991.8 568.8,1003.8C586.4,1015.6 609,1030.8 618.8,1037.5C628.5,1044.2 636.9,1049.7 637.2,1049.7C637.5,1049.9 640.6,1047.5 644.2,1044.7C647.6,1041.9 651.1,1039.5 651.8,1039.3C652.4,1039.3 657,1036 662,1032C666.9,1027.8 673.9,1022.4 677.7,1019.8C681.4,1017.3 689.2,1011.3 694.9,1006.7C700.7,1002.1 709.1,995.8 713.6,992.5C718.1,989.2 725.2,984 729.3,980.6C733.5,977.3 737.8,974 739.2,973.1C742.5,971 759.2,958.3 764.9,953.5L769.5,949.6L766.8,941.8M377.2,1031.2C378.5,1030.5 382.1,1027.8 385.1,1025.2C387.9,1022.8 395.4,1017.1 401.5,1012.8C427.6,994.3 439.6,985.6 455,973.7C465.8,965.3 466.5,965.8 443.4,966.2L429.5,966.5L418.7,974.6C403.3,986.4 384.1,1000.7 376.9,1005.7C373.6,1008.1 367.8,1012.6 364.1,1015.9C360.4,1019.2 356.5,1022.5 355.6,1023.2C354.3,1024.1 353.7,1028.9 353.7,1036.5L353.7,1048.4L364.3,1040.5C369.9,1036.3 375.9,1032.1 377.2,1031.2ZM1124.6,1029.4C1130.9,1024.3 1138,1018.9 1140.3,1017.5C1142.5,1016.2 1147.5,1012.4 1151.2,1009.3C1155.1,1006.2 1177.8,990.6 1189.1,981.3C1198.1,974 1213.6,962.6 1222.7,956.5C1226.4,954.1 1232.3,949.6 1235.5,946.6L1241.8,941.1L1235.8,924.1C1232.7,914.8 1228.9,904.2 1227.7,900.5C1226.5,896.8 1219.8,878.8 1218.8,876.1C1214.3,863.9 1199.5,822.5 1196.5,813.8C1194.6,808.4 1191.3,799.5 1189.2,793.6C1187.1,787.9 1185.3,783.1 1185.3,783C1185.3,783 1167.4,783.1 1145.4,783.3C1123.3,783.6 1090.3,783.7 1071.8,783.9C1028.9,784.2 1016.5,785.1 1016.5,787.8C1016.5,788.8 1014.6,795.6 1012.2,802.9C1009.8,810.1 1005.5,824.4 1002.3,834.7C999.3,845 995.4,857.4 993.9,862.3C989.4,876 985.4,892.7 984.2,895.1C983.2,897.6 980.5,906 978.4,913.8C976.2,921.6 973.5,931.4 972.3,935.5C971.3,939.7 970.2,943.7 970.2,944.5C970.2,945.4 985,956.1 1003.2,968.4C1021.4,980.8 1039,992.9 1042.5,995.4C1045.8,997.9 1059.1,1006.9 1071.8,1015.4C1084.5,1023.9 1097.8,1033.2 1101.4,1035.7C1105.4,1038.8 1108.9,1040.3 1110.4,1039.7C1111.8,1039.3 1118.2,1034.7 1124.6,1029.4ZM928.9,968.1C942.3,954.4 942.6,954.1 937.6,955C934.8,955.6 920.6,956.3 906.2,956.8C891.9,957.1 869.6,957.7 856.9,958.1C844.2,958.5 826.7,958.8 818.1,958.8C808.5,958.7 803,959.2 803.9,960C804.8,960.7 811.7,965.5 819.3,970.8L833.2,980.1L851.4,980.8C861.4,981.2 869.8,981.7 869.9,981.8C870,981.8 880.2,982.1 892.4,982.1L914.8,982.2L928.9,968.1ZM383.5,952.1C394.6,951.8 420.1,951.1 440.2,950.5C460.4,950.1 478.1,949 479.9,948.4C482,947.5 483.5,944.8 485,938.7C486,934.1 490.1,920.5 490.8,917.9C491.7,915.4 493.6,908.6 495.4,902.8C503.3,877.3 509.3,857.3 511.8,847.5C515.4,834.2 519.6,819.6 524.5,802.7L528.5,789.3C528.5,789.3 515.5,779.4 513.7,779C510.9,778.3 481.3,758.5 454.1,739.3C429.3,721.8 392.1,697.5 390,697.5C388.7,697.5 383,701.2 377.3,705.9C371.6,710.4 362.7,717.4 357.3,721.1C352.1,725 342.5,732.2 336.2,737.1C329.8,742 323.5,746.8 322.2,747.6C320.9,748.5 316.1,752.2 311.6,756C307.1,759.7 301,764.4 298.2,766.3C293.4,769.6 283.3,777.5 270.4,788C267.7,790.1 255.9,799 256.8,801.7C257.2,803.2 260.4,812.2 263.8,821.6C267.2,831 270.5,840.4 271.3,842.5C271.9,844.6 274.6,851.9 277.3,858.9C279.8,865.9 283,874.6 284.2,878.3C286.4,885.2 295.6,908.2 296.6,912.1C297.6,916.1 302.1,926.6 303.9,932C305.7,937.4 308.4,944.5 309.6,948.1L312,954.5L337.5,953.8C351.8,953.1 372.4,952.5 383.5,952.1ZM883,941.5C895.4,941.2 916.2,940.5 929.3,940C942.3,939.7 953.3,939 953.8,938.5C954.3,938 955.4,934.9 956.3,931.5C962.6,909 964.5,902.5 965.6,900.6C966.3,899.4 976.9,864.3 978.7,857.3C980.6,850.3 985,835.9 988.3,825.2C1002.2,781.6 1002.3,781 999.2,778.2C994.6,773.7 972.8,759.2 969,758C967.1,757.4 926.4,730.2 911.3,719.9C896.4,709.6 879,697.8 872.8,693.5C861.7,685.7 861.6,685.7 858.9,688.7C857.4,690.3 851.1,695.4 844.9,699.9C818.9,718.7 795.8,736.3 775.3,752.1C768.9,757 755.7,767 746.3,774.2C736.9,781.4 729,787.9 728.7,788.7C728.4,789.4 729.6,793.9 731.4,798.6C733.2,803.4 735.9,811.3 737.5,816.2C739.1,821.1 741.1,826.5 741.7,828.1C744.1,833.3 748,844.1 751.9,855.7C753.8,861.8 758.9,876.5 759.5,877.4C760.1,878.1 761.6,881.4 762.6,884.7C763.6,888 765,892 765.9,893.7C766.6,895.3 769.2,902.1 771.6,908.6C774,915.1 777.9,925.8 780.1,932.2L784.4,943.8L822.5,942.9C843.4,942.7 870.8,941.9 883,941.5ZM1259.5,917.4C1262.6,912.6 1267.1,905 1269.4,900.4L1273.4,892L1269.4,880.9C1267.2,874.8 1261.6,859.1 1257.3,846L1249.2,822.1L1233.4,811.5C1218.9,801.6 1209.2,796 1207.3,796C1206.9,796 1207.9,799.1 1209.4,802.9C1211,806.6 1213.7,816.8 1215.2,820.4C1216.7,823.8 1219.1,829.7 1220.3,833.4C1227.5,854.3 1232.1,867.4 1233.3,870.4C1236.4,877.4 1246.6,907.7 1249,913.3C1250,915.8 1251.5,919.6 1252,922C1252.6,924.2 1253.2,926 1253.5,926C1253.5,926 1256.2,922.1 1259.5,917.4ZM254,779.8C258.3,776.5 273.1,764.7 273.7,764.7C274.3,764.7 278.2,761.9 282.4,758.4C286.6,754.8 291.5,750.9 293.3,749.7C295.1,748.5 306.1,740.1 317.8,731C329.4,722 342.1,712.2 346.2,709.3C371.7,690.6 380.5,683.2 379.8,680.9C379.2,679.7 376.5,672.2 373.7,664.5C370.9,656.7 367.9,649 367.1,647.3C366.5,645.7 364.4,640 362.6,634.6C361,629.2 358.9,623.5 358.1,621.9C357.2,620.3 352.6,607.6 347.5,593.5C336.4,562.3 329.9,545.1 328.1,541.7C327.4,540.2 321.8,524 321.8,524L276.3,524.7C178,526.3 153.4,526.9 152.1,527.8C151.4,528.2 150.2,535.7 149.5,537.7C148,541.4 143.8,554.9 141.7,562.5C141,565 139.8,569.5 139,572.2C137.1,578.6 135.1,585.5 132.3,596.4C131,601.3 128.1,610.7 126.2,617.3C124.1,623.9 120.2,637.3 117.4,647.2C114.6,657.1 110.8,669.9 109.2,675.9C107.4,681.7 106.1,687.1 106.1,688C106.1,688.7 113.7,694.4 123,700.7C132.1,707 148.5,718 159.1,725.5C169.9,733 186.1,744.2 195.4,750.6C204.8,757 219.9,767.5 229,773.7C238.3,780 245.9,785.2 246.2,785.2C246,785.6 249.7,782.9 254,779.8ZM639,777.2L711.6,776.2L714,768.6C715.5,764.4 718.6,754.3 721.2,746.1C723.6,737.9 728.2,723.1 731.4,713.2C737.5,693.8 745.4,668.4 751.7,648.2C753.8,641.2 756.2,634.2 756.9,632.5C757.6,630.9 758.5,627 758.7,623.8C759.1,618.1 759.1,618 743.5,607.1C728.6,596.6 701.2,578 648.2,542C620.3,522.9 624.2,523.3 606.1,537.7C600,542.6 590.1,550.1 584.1,554.1C578.3,558.1 569.5,564.7 564.7,568.7C559.9,572.6 553.1,577.7 549.3,579.9C543.3,583.5 534.4,590.1 502.1,614.7C497.2,618.4 492.2,622 491.3,622.6C490.1,623.2 491.7,629.6 496.4,642.9C509.1,679.2 513,690.7 516.3,700.4C518.1,705.8 520.2,711.5 520.9,713.1C522.5,717 529.6,736.7 537.6,760.7L544,779.8L555.2,778.9C561.3,778.6 599.1,777.8 639,777.2ZM521.6,762.1C518.9,755.1 513.5,739.7 513.1,737.3C512.7,734.6 508.2,731.3 461.3,699.5L435.3,681.9L426.2,684.6C421.1,685.9 415.1,687.6 412.6,688.2L408.3,689.4L414.9,693.9C418.6,696.4 435.4,707.9 452.2,719.4C481.8,739.6 489.1,744.6 508.2,758.2C517.7,765 523.4,766.6 521.6,762.1ZM742.5,757.5C750.3,751.2 751.6,749.3 755.6,738.5C758,731.9 760.2,725.2 760.5,723.7C761.2,720.3 778.4,675.3 779.6,671.2C781.7,663.9 781.7,663.4 777.2,652.1C774.8,645.8 772.3,640.6 771.8,640.6C771.3,640.6 769,646.9 766.7,654.5C764.5,662 761.2,672.3 759.5,677.2C757.9,682.1 755.5,689.9 754.3,694.4C753.1,698.9 750.9,706 749.4,710.1C747.8,714.3 745.1,722.6 743.3,728.8C741.5,735 738.1,745.5 735.8,752.4C733.6,759.1 732.1,764.6 732.7,764.5C733.2,764.5 737.6,761.4 742.5,757.5ZM95.3,665.1C95.3,663.3 104.4,634.1 107.5,622.1C108.4,618.8 110.3,612.1 111.8,607.2C116.1,592.7 120.3,578.1 123.4,566.1C125,560 127.7,551.3 129.4,546.8C132.1,539.5 132.2,539 129.7,541.3C128.2,542.6 120.6,546.5 116.1,550.1C111.6,553.5 104,558.9 99.4,562C92.2,566.8 90.6,568.6 89.2,573.9C87.6,579.9 85,589.3 78.6,611.5C72.3,633.5 71.7,641.2 76.5,645.1C77.5,646 95.1,674.6 95.3,665.1ZM395.2,657.4C396.7,655.2 399.1,650.7 400.6,647.2C403.1,641.2 403.1,641.1 398.8,628.5C393.7,614.2 384,587.6 382.1,583.1C381.5,581.5 379.4,576.1 377.6,571.2C375.8,566.3 373.7,560.4 372.8,558.2C371.9,555.7 366.5,551.2 357.7,545.2C350.2,540.3 344,536.4 343.7,536.7C343.6,536.8 345.3,542.4 347.9,548.9C350.4,555.3 353.4,563.4 354.5,566.7C355.5,570 358.2,577.5 360.5,583.1C362.6,588.9 365.9,597.6 367.5,602.5C369.1,607.4 371.4,613.6 372.4,615.9C373.4,618.4 376.4,626.8 379.1,634.6C381.8,642.4 389.5,661.4 389.5,663.1C389.5,664.6 393.7,659.5 395.2,657.4ZM835.2,603.4C842.7,597.7 853.6,589.1 859.7,584.4C865.8,579.6 874,573.3 878.1,570.5C886.3,564.5 889,561.1 890.2,554.8C890.6,552.4 891.8,547.6 892.7,544.3C895.4,534.9 896.1,530.1 894.8,530.1C894.1,530.1 888.4,534.3 882.3,539.5C876.2,544.6 868.7,550.4 865.9,552.3C863.1,554.4 856.8,559.2 852.2,563.2C847.6,567.1 825.9,582.5 815,591.6C811.1,594.7 789.9,609.8 790.7,610.7C791.4,611.3 805.6,612.8 817.4,613.4C820.7,613.7 824.9,611.5 835.2,603.4ZM790,590.6C793,587.9 796.9,584.9 798.7,584C800.5,583.1 805.4,579.5 809.6,576.2C813.9,573.1 822.6,566.3 829,561.4C852.6,543.5 860.8,537.1 866,532.6C869,530.1 877.8,523.3 885.7,517.5C901.5,505.9 901.2,506.6 895.4,493.2C893.9,489.6 881.2,454.7 877.9,445.7C874.6,436.6 869.5,422.6 866.4,414.3C863.4,406.1 858.8,393.4 856.1,385.9C853.6,378.6 850.3,369.9 848.9,366.6C847.4,363.5 845.4,354.4 844,353.2C842.1,351.1 838.3,351 818.3,351.6C805.5,352 769,352.6 737.4,353.1C703.7,353.5 679.3,354.6 678.6,355.3C677.4,356.5 669.6,381.6 666.7,393.4C666.6,394.3 665.2,398.6 663.9,403.1C659.4,417.7 650.6,448.5 649.4,453.9C648.8,456.7 646.4,465.2 644.2,472.6C642,480.1 640,487.1 639.7,488.3C639.4,489.5 638.2,493.2 637,496.5C635.8,499.8 634.5,504.9 634,507.7C632.8,513.7 627.4,509.5 689.7,551.6C709.9,565.2 736,583.1 747.8,591.2L769.5,605.8L777,600.6C781,597.9 786.8,593.2 790,590.6ZM237.9,509.3C258.5,509.2 282.6,509 291.4,509C300.4,508.9 307.1,508.4 306.3,508C305.7,507.4 299.6,502 292.9,496.1L280.7,485.2L197.9,485.4L184.3,496.9C176.8,503.2 170,509 168.9,509.9C167.6,511.1 171.7,511.2 183.8,510.6C193.1,510.2 217.4,509.6 237.9,509.3ZM913.6,487.8L927.3,464.5L921.3,447.6C918,438.5 914.1,427.6 912.8,423.4C911.3,419.4 909.5,414.6 908.9,412.9C908.2,411.3 906.2,405.9 904.4,401C898.4,384.1 898.6,384.3 881.1,372.6C865.1,362 862.4,361 865.6,367.1C866.8,369.2 874.9,391.3 880.8,409.2C881.8,412 883.5,416.5 884.4,418.9C892.6,440.6 902.4,461.8 908.6,484.2C909.2,486.4 913.2,489.9 913.6,487.8ZM768.8,337C798.8,336.4 832.4,334.8 836.2,334.8C842.8,334.7 843.1,334.5 844.7,329.1C845.7,326 848.6,316.7 851.1,308.5C853.6,300.3 856.3,291.6 856.9,289.1C858.2,284.6 861.7,273.9 868.1,253.3C869.9,247.6 873.6,235.8 876.3,227.2C879,218.5 882.4,207.8 884.1,203.3C885.7,198.8 889.8,186 890.2,183.9C891.1,180 890.5,179.4 871.8,166.9C863,160.9 816.5,129.3 802.4,119.6C795.1,114.5 781.6,105.4 772.7,99.3C763.9,93.2 755.7,88.5 754.5,89C753.3,89.4 745.4,95.1 736.9,101.8C728.4,108.4 712.7,119.1 704.5,125.6C696.4,132.2 673.9,147.7 667.2,152.8C660.6,158 654.1,163 652.7,163.7C651.4,164.6 646.9,167.9 642.7,171.2C638.7,174.5 632.4,179.1 629.1,181.4L622.8,185.6L626.5,195.6C628.4,201.1 631.3,209.3 632.9,213.8C634.4,218.3 637.8,227.7 640.4,234.7C643.1,241.7 645.5,248.7 645.9,250.4C646.2,252 658.9,289.6 659.8,291.1C660.5,292.4 663.7,300.7 666.7,309.3C677.8,341.1 675.5,337.5 684.3,338C688.5,338.3 697,338.3 703.1,338.3C709.2,338 738.8,337.6 768.8,337Z" style="fill-rule:nonzero;"/>
                            </g>
                        </g>
                    </g>
                </g>
            </g>
        </g>
    </g>
</svg>
