<?xml version="1.0" encoding="UTF-8" standalone="no"?>
<!DOCTYPE svg PUBLIC "-//W3C//DTD SVG 1.1//EN" "http://www.w3.org/Graphics/SVG/1.1/DTD/svg11.dtd">
<svg width="100%" height="100%" viewBox="0 0 500 500" version="1.1" xmlns="http://www.w3.org/2000/svg" xmlns:xlink="http://www.w3.org/1999/xlink" xml:space="preserve" xmlns:serif="http://www.serif.com/" style="fill-rule:evenodd;clip-rule:evenodd;stroke-linecap:round;stroke-linejoin:round;stroke-miterlimit:7.5;">
    <g transform="matrix(1,0,0,1,-549,0)">
        <g transform="matrix(2.26244,0,0,2.22222,408.729,-80)">
            <rect id="Pavlovia-Emblem" serif:id="Pavlovia Emblem" x="62" y="36" width="221" height="225" style="fill:none;"/>
            <g id="Pavlovia-Emblem1" serif:id="Pavlovia Emblem">
                <g id="Pavlovia-Emblem2" serif:id="Pavlovia Emblem" transform="matrix(0.104216,0,0,0.105966,124.735,155.826)">
                    <path d="M0,-131.749C40.538,-152.018 65.874,-114.014 53.206,-86.144C27.87,-27.87 101.345,-58.274 53.206,10.134C53.206,10.134 10.135,50.672 63.341,60.807C154.552,76.009 65.874,205.224 32.937,162.152C15.202,136.816 43.072,154.551 -2.534,83.61C-76.009,-30.404 0,-32.937 -38.004,-83.61C-88.677,-154.552 -45.605,-263.498 48.139,-210.292C131.749,-164.686 119.081,-119.081 124.148,-91.211C116.547,-167.22 106.413,-233.094 -2.534,-283.767C-121.614,-342.04 65.874,-450.987 65.874,-557.399C65.874,-658.744 131.749,-694.215 276.166,-694.215C430.717,-691.682 448.453,-775.291 590.336,-739.821C699.282,-714.484 749.955,-638.475 805.695,-511.794C831.031,-450.987 836.099,-374.978 836.099,-306.57C836.099,-258.431 831.031,-245.762 909.574,-184.955C988.116,-124.148 828.498,17.735 858.901,81.076C843.7,43.072 884.238,7.601 881.704,-50.673C879.17,-114.014 843.7,-162.153 874.103,-212.825C922.242,-296.435 960.247,-324.305 823.431,-428.184C742.354,-488.991 696.749,-615.673 635.942,-587.803C577.668,-562.466 552.332,-557.399 367.377,-582.735C192.556,-605.538 121.614,-410.449 144.417,-344.574C157.085,-314.171 192.556,-316.704 200.157,-288.834C207.758,-248.296 157.085,-167.22 190.022,-141.884C207.758,-129.215 222.96,-139.35 258.431,-174.821C324.305,-238.161 359.776,-215.359 412.982,-215.359C506.727,-215.359 521.928,-70.942 435.785,-96.278C385.112,-111.48 390.179,-134.283 405.381,-134.283C435.785,-134.283 397.78,-68.408 342.04,-96.278C306.57,-116.547 316.704,-169.753 392.713,-172.287C483.924,-177.354 496.592,-149.484 494.058,-119.081C488.991,-63.341 440.852,58.273 291.368,-55.74C253.363,-83.61 230.561,-22.803 169.753,-32.937C152.018,-35.471 220.426,5.067 195.09,53.206C139.35,157.085 228.027,195.09 217.892,190.022C174.821,167.22 222.96,96.278 314.17,111.48C392.713,124.148 390.179,60.807 461.121,32.937C461.121,32.937 392.713,55.74 438.318,116.547C458.587,144.417 496.592,139.35 516.861,119.081C547.265,88.677 458.587,93.744 539.664,139.35C572.601,157.085 590.336,152.018 613.139,139.35C635.942,126.682 651.143,96.278 628.341,53.206C592.87,-22.803 585.269,-68.408 585.269,-131.749C585.269,-174.821 648.61,-172.287 681.547,-172.287C775.291,-172.287 770.224,-91.211 714.484,-86.144C668.879,-81.076 646.076,-129.215 671.412,-131.749C696.749,-134.283 679.013,-78.543 623.273,-88.677C597.937,-93.744 585.269,-111.48 585.269,-131.749C585.269,-144.417 585.269,-172.287 623.273,-195.09C646.076,-210.291 666.345,-215.359 704.35,-212.825C729.686,-212.825 760.089,-220.426 790.493,-192.556C820.897,-164.686 803.161,-149.484 823.43,-81.076C836.099,-35.471 813.296,38.004 752.489,40.538C699.282,43.072 668.879,20.269 668.879,20.269C785.426,119.081 630.874,159.619 646.076,119.081C648.61,111.48 661.278,108.946 668.879,129.215C681.547,162.152 742.354,177.354 805.695,154.552C876.637,126.682 945.045,177.354 899.439,217.892C841.166,268.565 912.108,296.435 932.377,306.569C1038.79,359.776 929.843,504.193 881.704,486.457C836.099,471.256 909.574,430.717 884.238,514.327C858.901,595.403 744.888,620.74 648.61,565C516.861,491.524 724.619,486.457 565,577.668C453.52,643.542 329.372,597.937 324.305,544.731C321.771,511.794 395.247,542.197 288.834,580.202C177.354,620.74 114.013,468.722 154.552,428.184C197.623,385.112 192.556,481.39 124.148,392.713C68.408,321.771 86.143,91.211 271.099,220.426C430.717,331.906 615.673,228.027 575.135,207.758C547.265,192.556 514.327,258.43 704.35,273.632C782.892,278.699 836.099,266.031 889.305,225.493C891.838,222.96 894.372,220.426 896.906,217.892" style="fill:none;fill-rule:nonzero;stroke:rgb(18,54,85);stroke-width:25px;"/>
                </g>
            </g>
        </g>
    </g>
</svg>
