<?xml version="1.0" encoding="UTF-8" standalone="no"?>
<!DOCTYPE svg PUBLIC "-//W3C//DTD SVG 1.1//EN" "http://www.w3.org/Graphics/SVG/1.1/DTD/svg11.dtd">
<svg width="100%" height="100%" viewBox="0 0 48 48" version="1.1" xmlns="http://www.w3.org/2000/svg" xmlns:xlink="http://www.w3.org/1999/xlink" xml:space="preserve" xmlns:serif="http://www.serif.com/" style="fill-rule:evenodd;clip-rule:evenodd;stroke-linejoin:round;stroke-miterlimit:2;">
    <rect id="Artboard1" x="0" y="0" width="48" height="48" style="fill:none;"/>
    <g id="Artboard11" serif:id="Artboard1">
        <g transform="matrix(0.193877,0,0,0.193877,-3.7551,-72.2244)">
            <g id="bxs-group" transform="matrix(0.197369,0,0,0.197369,103.158,378.947)">
                <path d="M405.333,512C499.456,512 576,435.456 576,341.333C576,247.21 499.456,170.666 405.333,170.666C311.21,170.666 234.666,247.21 234.666,341.333C234.666,435.456 311.21,512 405.333,512ZM469.333,554.667L341.333,554.667C200.149,554.667 85.333,669.483 85.333,810.667L85.333,853.334L725.333,853.334L725.333,810.667C725.333,669.483 610.517,554.667 469.333,554.667Z" style="fill:rgb(37,169,234);fill-rule:nonzero;"/>
            </g>
            <g id="bxs-group1" serif:id="bxs-group" transform="matrix(0.197369,0,0,0.197369,23.1579,391.579)">
                <path d="M405.333,512C499.456,512 576,435.456 576,341.333C576,247.21 499.456,170.666 405.333,170.666C311.21,170.666 234.666,247.21 234.666,341.333C234.666,435.456 311.21,512 405.333,512ZM469.333,554.667L341.333,554.667C200.149,554.667 85.333,669.483 85.333,810.667L85.333,853.334L725.333,853.334L725.333,810.667C725.333,669.483 610.517,554.667 469.333,554.667Z" style="fill:rgb(242,84,91);fill-rule:nonzero;"/>
            </g>
            <g id="bxs-group2" serif:id="bxs-group" transform="matrix(0.197369,0,0,0.197369,76.8421,411.579)">
                <path d="M405.333,512C499.456,512 576,435.456 576,341.333C576,247.21 499.456,170.666 405.333,170.666C311.21,170.666 234.666,247.21 234.666,341.333C234.666,435.456 311.21,512 405.333,512ZM469.333,554.667L341.333,554.667C200.149,554.667 85.333,669.483 85.333,810.667L85.333,853.334L725.333,853.334L725.333,810.667C725.333,669.483 610.517,554.667 469.333,554.667Z" style="fill:rgb(102,102,110);fill-rule:nonzero;"/>
            </g>
        </g>
    </g>
</svg>
